o ButtonHighlight
v 0.875 0 0.875
v 1 0 1
v 1 0 -1
v 0.875 0 -0.875
v -1 0 -1
v -0.875 0 -0.875
v -1 0 1
v -0.875 0 0.875
vt 0.835052137780312 0.512117430277187
vt 0.84325278352 0.50988089053
vt 0.84325278352 0.545665526485
vt 0.81045020056125 0.53671936749625
vt 0.712042451685 0.545665526485
vt 0.720243097424688 0.543428986737813
vt 0.712042451685 0.50988089053
vt 0.74484503464375 0.51882704951875
vn 0.04582861328125 0.99321435546875 0.03857216796875
vn 0.0447796875 0.9933828125 0.0374578125
vn 0.03365625 0.99529375 0.02389375
vn 0.043413671875 0.993664453125 0.035133203125
vn 0.0615625 0.9906875 0.0552875
vn 0.06051357421875 0.99085595703125 0.05417314453125
vn 0.065709375 0.989928125 0.061003125
vn 0.059440234375 0.990981640625 0.053687890625
g ButtonHighlight
f 1/1/1 2/2/2 3/3/3 4/4/4
f 4/4/4 3/3/3 5/5/5 6/6/6
f 6/6/6 5/5/5 7/7/7 8/8/8
f 8/8/8 7/7/7 2/2/2 1/1/1
#h
